<mxfile host="app.diagrams.net" modified="2023-10-27T13:47:09.893Z" agent="Mozilla/5.0 (Windows NT 10.0; Win64; x64; rv:109.0) Gecko/20100101 Firefox/118.0" etag="ASWwWTqA4fr5-1yZRYMn" version="22.0.8" type="github">
  <diagram name="Strona-1" id="CQu3V4kOaJphoyatPFUh">
    <mxGraphModel dx="1434" dy="820" grid="1" gridSize="10" guides="1" tooltips="1" connect="1" arrows="1" fold="1" page="0" pageScale="1" pageWidth="827" pageHeight="1169" math="0" shadow="0">
      <root>
        <mxCell id="0" />
        <mxCell id="1" parent="0" />
      </root>
    </mxGraphModel>
  </diagram>
</mxfile>
